<?xml version="1.0" encoding="UTF-8" standalone="no"?>
<!-- Generator: Adobe Illustrator 24.1.0, SVG Export Plug-In . SVG Version: 6.00 Build 0)  -->

<svg
   xmlns:dc="http://purl.org/dc/elements/1.1/"
   xmlns:cc="http://creativecommons.org/ns#"
   xmlns:rdf="http://www.w3.org/1999/02/22-rdf-syntax-ns#"
   xmlns:svg="http://www.w3.org/2000/svg"
   xmlns="http://www.w3.org/2000/svg"
   xmlns:sodipodi="http://sodipodi.sourceforge.net/DTD/sodipodi-0.dtd"
   xmlns:inkscape="http://www.inkscape.org/namespaces/inkscape"
   version="1.1"
   id="Layer_1"
   x="0px"
   y="0px"
   viewBox="0 0 1868.3 1417.3"
   xml:space="preserve"
   sodipodi:docname="GLM.svg"
   width="1868.3"
   height="1417.3"
   inkscape:version="0.92.5 (2060ec1f9f, 2020-04-08)"><metadata
   id="metadata4654"><rdf:RDF><cc:Work
       rdf:about=""><dc:format>image/svg+xml</dc:format><dc:type
         rdf:resource="http://purl.org/dc/dcmitype/StillImage" /><dc:title></dc:title></cc:Work></rdf:RDF></metadata><defs
   id="defs4652" /><sodipodi:namedview
   pagecolor="#ffffff"
   bordercolor="#666666"
   borderopacity="1"
   objecttolerance="10"
   gridtolerance="10"
   guidetolerance="10"
   inkscape:pageopacity="0"
   inkscape:pageshadow="2"
   inkscape:window-width="1451"
   inkscape:window-height="663"
   id="namedview4650"
   showgrid="false"
   inkscape:zoom="0.23548606"
   inkscape:cx="730.45044"
   inkscape:cy="721.194"
   inkscape:window-x="285"
   inkscape:window-y="328"
   inkscape:window-maximized="0"
   inkscape:current-layer="Layer_1" />
<style
   type="text/css"
   id="style4645">
	.st0{fill:#181EA9;}
</style>
<path
   class="st0"
   d="m 956.7,78.699979 c -347.4023,0 -630.00002,282.597721 -630.00002,630.000021 0,347.4023 282.59772,630 630.00002,630 347.4023,0 630,-282.5977 630,-630 0,-347.4023 -282.6867,-630.000021 -630,-630.000021 z m 0,1224.264121 c -327.66757,0 -594.26416,-266.5965 -594.26416,-594.2641 0,-327.66757 266.50769,-594.26416 594.26416,-594.26416 327.7565,0 594.2641,266.59659 594.2641,594.26416 0,327.6676 -266.5965,594.2641 -594.2641,594.2641 z m 120.0085,-860.06063 -55.2928,55.29278 c -18.7569,-13.42316 -41.69186,-21.24594 -66.4936,-21.24594 -63.29335,0 -114.76365,51.47031 -114.76365,114.76366 0,56.80401 41.42514,104.00734 95.65119,113.16354 v 41.51404 c -54.22605,9.15622 -95.65119,56.35953 -95.65119,113.16355 0,63.29335 51.4703,114.76364 114.76365,114.76364 63.2933,0 114.7637,-51.47029 114.7637,-114.76364 0,-56.80402 -41.4253,-104.00733 -95.65123,-113.16355 v -41.51404 c 54.22593,-9.1562 95.65123,-56.35953 95.65123,-113.16354 0,-24.71285 -7.9117,-47.64781 -21.2459,-66.49358 l 55.2928,-55.2928 z m -45.2478,416.74051 c 0,42.2252 -34.3134,76.53874 -76.5386,76.53874 -42.22521,0 -76.53873,-34.31354 -76.53873,-76.53874 0,-42.22519 34.31352,-76.53872 76.53873,-76.53872 42.2252,0 76.5386,34.31353 76.5386,76.53872 z M 954.9221,668.2527 c -42.22521,0 -76.53873,-34.31353 -76.53873,-76.53873 0,-42.2252 34.31352,-76.53873 76.53873,-76.53873 42.2252,0 76.5387,34.31353 76.5387,76.53873 0,42.2252 -34.3135,76.53873 -76.5387,76.53873 z"
   id="path4647"
   inkscape:connector-curvature="0"
   style="fill:#181ea9;stroke-width:0.88895166" />
</svg>